<?xml version="1.0" encoding="UTF-8"?>
<svg version="1.1" viewBox="0 0 2048 1081" width="1460" height="771" xmlns="http://www.w3.org/2000/svg">
<path transform="translate(0)" d="m0 0h2048v1081h-2048z" fill="#FCFCFC"/>
<path transform="translate(1271,190)" d="m0 0h371v161l-6 5h-222l1 259v105l4 13 7 7 48 1 6 4 3 5 1 37 3 2 7-1 13-7 4-1 10 9 14 11 13 11 33 27 3 4 1-6 1-65h-3l-1 38-6-4-14-12-10-8-34-28-12-10 2-5 14-19 11-14 11-13 12-14 21-21 14-11 14-9 11-5 17-5 26-5 18-2 2 1 2-14-5-1-8-7-4-5-4-12-5-22 1-13 4-10 5-6 3-3 6-16v-4l-8-7-4-5-4-9-2-11v-8l3-14 6-10 8-6 9-3h12l10 3 8 6 7 8 6 12 2 9v7l6-3h10l7 3 7 8 5 11 2 11 6 2 5 5 2 4v11l-5 14 1 4 4 7 1 4v9l-3 9-7 9-6 4-8 3h-9l-3-1-1 16-1 14 23 5 37 12 8 5 12 8 12 11 10 10 12 16 7 11v2l3 1 8 16 8 15 12 28 14 41 2 8h-128l-1-11-4-1v38l5-2h116l3 9 3 18v24l-4 16-5 10-9 10-10 7-13 5-21 4-28 3-20 1h-66l-57-3-21-2-15-4-21-9-16-6-12-4v13l-1 8h-386-2-369l-8-1v-5l52-1-5-4-1-5 201-1 5-3 2-4v-8l-4-6-9-2h-187l-8-1 2-5 1-1 27-1-8-9-2-4v-10l4-8 6-5 6-2 20-1-6-4-4-6-1-3v-9l4-8 6-5 5-2h187l3 4v2l-145 1-6 4-2 4v8l3 5 3 2 146 1 1 2-1 4 14 1 5 5-1 2h-120l-57 1-6 5-1 2v9l5 6 2 1 177 1v5l-3 2-24 1 6 7 1 2v18l-4 6-6 4-12 1 89 1 17 1v-174h-381l-8-2-6-7v-399l43-1h571v-24l-4-6-5-3-134-1z" fill="#D2D1DB"/>
<path transform="translate(1682,439)" d="m0 0h12l10 3 8 6 7 8 6 12 2 9v7l6-3h10l7 3 7 8 5 11 2 11 6 2 5 5 2 4v11l-5 14 1 4 4 7 1 4v9l-3 9-7 9-6 4-8 3h-9l-3-1-1 16-1 14 23 5 37 12 8 5 12 8 12 11 10 10 12 16 7 11v2l3 1 8 16 8 15 12 28 14 41 2 8h-128l-1-11-4-1v38l5-2h116l3 9 3 18v24l-4 16-5 10-9 10-10 7-13 5-21 4-28 3-20 1h-66l-57-3-21-2-15-4-21-9-16-6-12-4v13l-1 8h-386v-191l5-7 4-2 172-1-8-8-5-12-1-6v-13h4v10l2 11 4 8 8 7 5 3 87 1 6 4 3 5 1 37 3 2 7-1 13-7 4-1 10 9 14 11 13 11 33 27 3 4 1-6 1-65h-3l-1 38-6-4-14-12-10-8-34-28-12-10 2-5 14-19 11-14 11-13 12-14 21-21 14-11 14-9 11-5 17-5 26-5 18-2 2 1 2-14-5-1-8-7-4-5-4-12-5-22 1-13 4-10 5-6 3-3 6-16v-4l-8-7-4-5-4-9-2-11v-8l3-14 6-10 8-6z" fill="#A9A1F9"/>
<path transform="translate(1642,190)" d="m0 0h1v34h44l21 3 26 6 30 10 23 11 14 10 11 9 18 18 11 14v3l-7 8-7 14-3 16 1 14 4 12 7 12 10 10 12 7 14 4h22l4 10 9 28 7 28 7 36 4 33 1 13v21h76l9 3 5 5 3 5v110l-5 8-7 4-5 1h-138l-5-5-9-14-11-14-15-15-14-10-9-5-10-4-28-9-23-5h-1l1-15 2-16h12l10-4 6-5 5-8 2-7v-9l-4-10-2-2 1-5 4-12v-11l-3-6-9-5-5-16-6-10-6-5-4-1h-10l-6 2-3-16-6-12-9-10-8-4-7-2h-12l-11 4-6 5-6 12-2 11v8l3 14 5 9 7 7 4 3-2 6-6 15-5 4-5 10-2 9v7l7 29 4 8 7 7 7 3v7l-2 7-20 2-26 5-20 6-15 8-12 9-13 11-19 19-9 11-9 10-13 17-15 20-1 4 14 12 10 8 34 28 11 9 5 4 1-37 4-1 1 1-1 65-2 7-4-5-13-11-10-8-34-28-11-9-4-1-10 6-6 3h-5l-4-3-1-37-4-6-4-2-48-1-8-8-4-13v-364l222-1 5-4z" fill="#E8E6EB"/>
<path transform="translate(1583,919)" d="m0 0 27 9 20 9 13 4 13 2 48 3 22 1 53 1v1l-28 1-15 10-19 12-23 13-29 15-29 13-35 14-41 14-28 8-36 9-40 8-39 6-45 5-28 2-30 1-7 1h-47l-6-1-38-2-46-5-49-8-36-8-29-8-30-10-33-13-22-10-17-9-16-9-20-14-11-9-10-9-6-5-7-8-9-10-2-2 73-1h32l217 1 1-2 1 1 386 1z" fill="#E8E6EB"/>
<path transform="translate(1365,700)" d="m0 0 3 1v10l2 11 4 8 8 7 5 3 87 1 6 4 3 5 1 38-1 123h91l5 3 4 5 1 2v12l-1 8h-386v-191l5-7 4-2 172-1-8-8-5-12-1-6v-13z" fill="#7B50D2"/>
<path transform="translate(1960,940)" d="m0 0h88v141h-741v-1l7-1 30-1 38-3 42-5 43-7 42-9 41-11 43-14 36-14 27-12 29-14 22-12 23-14 21-14 28-1 45-3 28-4z" fill="#FCFCFC"/>
<path transform="translate(1271,190)" d="m0 0h371v161l-6 5h-221l-1-28-4-6-5-3-134-1z" fill="#7B50D2"/>
<path transform="translate(1195,760)" d="m0 0h1v176l-27-1-100-1v-1l32-2 6-4 3-5v-18l-4-6-4-4 26-1 2-1 1-5h-177l-7-6-1-2v-9l6-7 2-1 57-1h120l-2-4-2-1-15-1 1-6-146-1-5-5-2-3v-8l4-6 5-3h145l-3-5h-187l-8 4-4 5-2 5v9l3 6 5 5 4 3-22 1-9 4-5 7-1 3v10l6 9 5 5-29 1-3 5h195l9 2 4 5 1 2v8l-4 6-4 2-202 1-11-24-7-21-5-22-2-17v-30l2-18 6-27 2-6z" fill="#E8E6EB"/>
<path transform="translate(1508,780)" d="m0 0 4 1 14 12 10 8 34 28 11 9 3 5v2l13 1 19 3h5l-6-9-5-11-1-9 1-1 8 1 20 18 19 12 8 6 8 10 9 14 16-6 37-15 42-17 3-1h116l3 9 3 18v24l-4 16-5 10-9 10-10 7-13 5-21 4-28 3-20 1h-66l-57-3-21-2-15-4-21-9-16-6-14-5-5-6-3-1-91-1v-123l9 1 15-8z" fill="#FD7F6A"/>
<path transform="translate(1682,439)" d="m0 0h12l10 3 8 6 7 8 6 12 2 9v7l6-3h10l7 3 7 8 5 11 2 11 6 2 5 5 2 4v11l-5 14 1 4 4 7 1 4v9l-3 9-7 9-6 4-8 3h-9l-3-1-1 16-2 21-2 6-12 7-16 5h-18l-15-5-2-1 2-11 5-25-5-1-8-7-4-5-4-12-5-22 1-13 4-10 5-6 3-3 6-16v-4l-8-7-4-5-4-9-2-11v-8l3-14 6-10 8-6z" fill="#FD7E6A"/>
<path transform="translate(1801,615)" d="m0 0h215v81l-4 6-6 4-3 1h-139l-2-1-1 2-10-16-13-16-14-14-14-10-9-5z" fill="#E8E6EB"/>
<path transform="translate(1019,58)" d="m0 0h189l1 75-2 5-2 1h-183l-3-3z" fill="#FCFCFC"/>
<path transform="translate(1815,574)" d="m0 0h187l9 3 5 5 3 5v110l-5 8-7 4-5 1h-138l-2-4h141l8-4 4-6 1-81h-215v31l-4-2v-52l3-9 4-5 6-3z" fill="#E7E5EB"/>
<path transform="translate(924,817)" d="m0 0h187l3 4v2l-145 1-6 4-2 4v8l3 5 3 2 146 1 1 2-1 4 14 1 5 5-1 2h-120l-57 1-6 5-1 2v9l5 6 2 1 177 1v5l-3 2-167 1h-59l-8-2-8-9-2-4v-10l4-8 6-5 6-2 20-1-6-4-4-6-1-3v-9l4-8 6-5z" fill="#90ADFB"/>
<path transform="translate(1942,836)" d="m0 0 17 2h41l17-2v38l-1 59h-74l-1-7-11-4-8-7-4-6-4-13v-15l4-12 6-9 9-6 9-2z" fill="#F23874"/>
<path transform="translate(1927,615)" d="m0 0h89v81l-4 6-6 4h-91l2-12 6-37 2-20 1-21z" fill="#FCFCFC"/>
<path transform="translate(944,641)" d="m0 0h11l1 1v89l-1 1h-88l-1-1v-89z" fill="#FCFCFC"/>
<path transform="translate(867,534)" d="m0 0h90v89l-1 1h-62l-27-1z" fill="#FBFBFC"/>
<path transform="translate(867,426)" d="m0 0h90v89l-1 1h-58l-31-1z" fill="#FCFBFC"/>
<path transform="translate(1349,669)" d="m0 0h8l13 5 16 9 13 10 7 7 7 14 6 19 7 7v1h-39l-9-6-7-8-3-9-1-13v-4h-2v13l3 12 5 8 7 6v1h-112v-5l7-4-11-6-4-5 2-5 5-3 8-2-6-7 1-5 3-3 7-2 14-1h36l26 1 3 1-9-11-4-7v-5z" fill="#FD7E6A"/>
<path transform="translate(1302,226)" d="m0 0h84l1 1v74h-85z" fill="#FAB15D"/>
<path transform="translate(1682,439)" d="m0 0h12l10 3 8 6 7 8 6 12 2 9v7l6-3h10l2 1 3 10 1 7v23l-2 22-5 3-5 4-9-3-9-7-5-6-3-8v-7l-6-1v-4h6l1-4-7-6-9-3-9 1-8 5-4 5-10-9-5-8-3-9-1-7v-8l3-14 6-10 8-6z" fill="#050304"/>
<path transform="translate(1022,37)" d="m0 0h183l5 3 2 4v91l-3 6-6 2h-180l-5-3-2-2-1-5v-88l3-6zm-3 21v78l3 3h183l3-2 1-4-1-75z" fill="#F54972"/>
<path transform="translate(982,426)" d="m0 0h359v14h-358l-1-1z" fill="#FCFCFC"/>
<path transform="translate(983,483)" d="m0 0h358v14h-358l-1-1v-12z" fill="#FBFBFB"/>
<path transform="translate(984,453)" d="m0 0h350l6 1v13h-357v-13z" fill="#A9A1FA"/>
<path transform="translate(984,561)" d="m0 0h340l16 1v12l-17 1h-339l-1-1v-12z" fill="#A9A1FA"/>
<path transform="translate(1046,900)" d="m0 0h13l9 2 4 5 1 2v8l-4 6-4 2h-200v-24z" fill="#FCFCFC"/>
<path transform="translate(1414,356)" d="m0 0h18l54 1-1 7-6 17-10 21-11 18-12 16-12 14-15 15-4 2-1-2z" fill="#FCFCFC"/>
<path transform="translate(867,894)" d="m0 0h235l7 6 2 4v18l-4 6-6 4-12 1h-221l-4-5v-3l201-1 5-3 2-4v-8l-4-6-9-2h-187l-8-1 2-5z" fill="#F33F73"/>
<path transform="translate(1011,861)" d="m0 0h60l60 1v24h-179l-6-7v-9l6-7 2-1z" fill="#FCFCFC"/>
<path transform="translate(967,824)" d="m0 0h147v24h-147l-5-5-2-3v-8l4-6z" fill="#FCFCFC"/>
<path transform="translate(1745,482)" d="m0 0 5 2 7 8 5 11 2 11 6 2 5 5 2 4v11l-5 14 1 4 4 7 1 4v9l-3 9-7 9-6 4-8 3h-9l-8-3-6-8-3-11 1-12 5-12 8-7 4-2 2-22v-23l-3-14z" fill="#F13774"/>
<path transform="translate(1926,577)" d="m0 0h76l8 3 5 6 1 2v24h-89z" fill="#FAFAFB"/>
<path transform="translate(1779,821)" d="m0 0h130l4 13 1 6-20 1h-115z" fill="#A9A1F9"/>
<path transform="translate(1408,257)" d="m0 0h200v13h-200z" fill="#CFCEDD"/>
<path transform="translate(1022,41)" d="m0 0h184l2 2v11h-189v-10z" fill="#FBFBFB"/>
<path transform="translate(1408,289)" d="m0 0h200v12h-200z" fill="#D3D2DB"/>
<path transform="translate(1408,226)" d="m0 0h200v12h-200z" fill="#D3D2DB"/>
<path transform="translate(1815,574)" d="m0 0h187l9 3 5 5 3 5v110l-5 8-7 4-5 1h-138l-2-4h141l8-4 4-6 1-81h-215v31l-4-2v-52l3-9 4-5 6-3zm-1 3-8 4-4 5-1 3v23h215v-24l-4-6-3-3-7-2z" fill="#FAB05D"/>
<path transform="translate(967,817)" d="m0 0h144l3 4v2l-145 1-6 4-2 4v8l3 5 3 2 146 1 1 2-2 5-1 1h-142l-8-4-5-6-2-4v-11l4-8z" fill="#7D54D4"/>
<path transform="translate(1852,328)" d="m0 0h45l1 4v7l13-7h3l1 3v25l-4 1-13-7v8l-3 3h-42l-3-1v-35z" fill="#91AFFC"/>
<path transform="translate(1327,801)" d="m0 0h8l9 3 8 7 5 10v13l-6 11-9 6-4 2h-13l-10-5-7-8-3-9v-8l3-9 7-8 8-4z" fill="#F9F9FB"/>
<path transform="translate(1502,750)" d="m0 0 4 2 13 11 9 7 17 14 13 11 10 8 14 11v24l-5-2-10-9-10-8-34-28-11-9-13-11-6-5 2-5z" fill="#A9A1F9"/>
<path transform="translate(924,817)" d="m0 0h43l-5 4-5 5-2 5v11l5 8 6 4v2h-34l-10-1-8-5-4-6-1-3v-9l4-8 6-5z" fill="#A8A1FA"/>
<path transform="translate(1864,710)" d="m0 0h50l-4 16-16 48-2-3-10-24-9-19-9-16z" fill="#E8E6EB"/>
<path transform="translate(1738,635)" d="m0 0h1v15l-5 15-6 8-6 4h-11l-6-3-7-7-1-4-9 5-10 5h-8l-5-4v-11l5-9 4-3 13 5 4 1h18l16-5 12-7z" fill="#F3F2F4"/>
<path transform="translate(938,446)" d="m0 0 4 1 7 6-1 4-10 11-9 11-13 14-7 8-4-2-19-13-12-9 2-5 5-7 5 2 18 13h4l9-10 9-11z" fill="#F23B74"/>
<path transform="translate(941,553)" d="m0 0 8 6 2 2-1 4-12 13-9 11-12 13-6 7-11-7-24-18 5-9 2-2 4 1 14 10 8 5 12-14 11-12 7-8z" fill="#F23B74"/>
<path transform="translate(1874,934)" d="m0 0h43l28 1h103v5l-88 1h-103l4-2z" fill="#D3D2DB"/>
<path transform="translate(1940,859)" d="m0 0 2 1v58l-7-1-8-7-5-10-1-4v-15l4-10 6-8z" fill="#F9F9FA"/>
<path transform="translate(1332,821)" d="m0 0 7 2 6 5 3 5 1 6-4 6-5 6-2 1v-2l-2 1h-9l-8-6-8-11-1-8 3-3 1 3 5-1z" fill="#E9E7EC"/>
<path transform="translate(1504,747)" d="m0 0 4 1 13 11 10 8 34 28 11 9 5 4 1-37 4-1 1 1-1 65-2 7-3-3 1-26-4-2-13-11-10-8-13-11-10-8-16-13-12-10-1-3z" fill="#F2F1F4"/>
<path transform="translate(1583,919)" d="m0 0 27 9 20 9 6 2v2h-53z" fill="#A9A2F9"/>
<path transform="translate(1733,647)" d="m0 0h2l-3 12-5 9-5 4-2 1h-8l-6-4-6-7-2-4 2-1 14-2 16-6z" fill="#A9A1FA"/>
<path transform="translate(1338,700)" d="m0 0h3l-1 5-15 26-5 8-14-1-24-3-3-3 1-1 15 1 16 2h7l9-16-48-4-3-1v-3h11l38 3h5z" fill="#050304"/>
<path transform="translate(1727,606)" d="m0 0v3l-7 6-14 7-14 3-13 1 2-12 2-2 5 1h14l15-3z" fill="#050304"/>
<path transform="translate(1764,515)" d="m0 0 6 1 5 5 2 4v11l-5 14-4 1-5-2 1-15z" fill="#050304"/>
<path transform="translate(1988,585)" d="m0 0 8 1 5 6v8l-4 5-8 2-6-3-3-5v-6l4-6z" fill="#FAB25D"/>
<path transform="translate(1673,652)" d="m0 0 7 1 15 4-5 5-10 6-9 1-2-2v-8z" fill="#A9A1FA"/>
<path transform="translate(1764,550)" d="m0 0 7 1 6 10 1 4v9l-3 9-7 9-6 4-2-1 6-7 3-8 1-13 1-4 1-2-3-1z" fill="#FD7F6A"/>
<path transform="translate(878,326)" d="m0 0 6 1 5 5v6l-2 4-3 2h-8l-4-4-1-2v-6l4-5z" fill="#F33D74"/>
<path transform="translate(827,326)" d="m0 0 6 1 5 5v7l-5 5h-7l-5-4-1-7 3-5z" fill="#FAB25D"/>
<path transform="translate(1219,759)" d="m0 0h92v2l-2 1h-87l-3-1z" fill="#C1C8E3"/>
<path transform="translate(853,326)" d="m0 0 6 1 4 5v7l-5 5h-7l-5-5v-7l4-5z" fill="#91AFFC"/>
<path transform="translate(1022,41)" d="m0 0 17 1-1 4v4 3l-2 1h-17v-10z" fill="#F9F9F9"/>
<path transform="translate(1665,535)" d="m0 0h2l-4 16-3 17-1 7-2-2-2-9 1-13 4-10z" fill="#F33E73"/>
<path transform="translate(1989,588)" d="m0 0 6 1 3 4v6l-4 4h-6l-5-5 1-6z" fill="#FAFAFA"/>
<path transform="translate(1700,575)" d="m0 0 3 1-1 5-6 7h-7l-5-4-1-5z" fill="#050304"/>
<path transform="translate(1365,700)" d="m0 0 3 1v10l2 11 4 8 8 7 5 3v1l-9-1-8-8-5-12-1-6v-13z" fill="#050304"/>
<path transform="translate(1599,170)" d="m0 0 7 1 2 2v7l-3 3h-6l-4-5 1-5z" fill="#F33E73"/>
<path transform="translate(1579,170)" d="m0 0 7 1 2 3-1 7-3 2h-5l-4-5 1-5z" fill="#FAB25D"/>
<path transform="translate(1688,537)" d="m0 0 3 1-6 11-3 10 2 10-4 1-2-5v-10l4-10z" fill="#050304"/>
<path transform="translate(1620,170)" d="m0 0 6 1 2 3v5l-4 4-5-1-3-3 1-7z" fill="#A8A1FA"/>
<path transform="translate(1025,43)" d="m0 0 8 1 5-1-1 6 1 3-8-1-5 1 1-5z" fill="#F44872"/>
<path transform="translate(1621,850)" d="m0 0 5 1 11 9v4l-5-3-10-8z" fill="#050304"/>
<path transform="translate(1706,530)" d="m0 0 3 1-3 10-1 2-4-1 4-11z" fill="#050304"/>
<path transform="translate(1676,527)" d="m0 0h3l-1 7-3 6-3-1 3-10z" fill="#050304"/>
<path transform="translate(1572,889)" d="m0 0 11 1 1 4-9-1-3-1z" fill="#050304"/>
<path transform="translate(1680,513)" d="m0 0 7 2-1 3h-11v-3z" fill="#050304"/>
<path transform="translate(1579,867)" d="m0 0h7l5 2v2h-8l-5-2z" fill="#050304"/>
<path transform="translate(1025,41)" d="m0 0 14 1-1 3v-2l-5 2-5-1-3-1-1 2z" fill="#F8F7F9"/>
<path transform="translate(1694,580)" d="m0 0h3l-2 4-4 1-3-3z" fill="#FB726C"/>
</svg>
